<svg width="45" height="45" viewBox="0 0 45 45" fill="none" xmlns="http://www.w3.org/2000/svg">
<path d="M44.8966 13.2414C44.7931 10.8621 44.3793 9.2069 43.8621 7.75862C43.2414 6.31034 42.5172 5.06896 41.2759 3.72414C40.0345 2.48276 38.7931 1.65517 37.2414 1.13793C35.7931 0.62069 34.1379 0.206897 31.7586 0.103448C29.3793 0 28.6552 0 22.5517 0C16.4483 0 15.7241 0 13.2414 0.103448C10.8621 0.206897 9.2069 0.62069 7.75862 1.13793C6.31034 1.75862 5.06897 2.48276 3.82759 3.82759C2.58621 5.06897 1.75862 6.31034 1.24138 7.86207C0.724138 9.31034 0.310345 10.9655 0.206897 13.3448C0 15.6207 0 16.3448 0 22.5517C0 28.7586 0 29.3793 0.103448 31.8621C0.206897 34.2414 0.62069 35.8965 1.13793 37.3448C1.75862 38.7931 2.48276 40.0345 3.72414 41.3793C4.96552 42.6207 6.2069 43.4483 7.75862 43.9655C9.2069 44.4828 10.8621 44.8965 13.2414 45C15.6207 45.1034 16.4483 45.1034 22.5517 45.1034C28.6552 45.1034 29.3793 45.1034 31.8621 45C34.2414 44.8965 35.8965 44.4828 37.3448 43.9655C38.7931 43.3448 40.0345 42.6207 41.3793 41.3793C42.6207 40.1379 43.4483 38.8965 43.9655 37.3448C44.4828 35.8965 44.8965 34.2414 45 31.8621C45.1034 29.4828 45.1034 28.6552 45.1034 22.5517C45.1034 16.4483 45 15.6207 44.8966 13.2414ZM40.8621 31.5517C40.7586 33.7241 40.3448 34.9655 40.1379 35.6897C39.7241 36.7241 39.2069 37.4483 38.4828 38.2759C37.6552 39.1034 36.931 39.5172 35.8965 39.931C35.069 40.2414 33.931 40.6552 31.7586 40.6552C29.3793 40.7586 28.6552 40.7586 22.6552 40.7586C16.6552 40.7586 15.931 40.7586 13.5517 40.6552C11.3793 40.5517 10.1379 40.1379 9.41379 39.931C8.37931 39.5172 7.65517 39 6.82759 38.2759C6 37.4483 5.58621 36.7241 5.17241 35.6897C4.86207 34.8621 4.44828 33.7241 4.44828 31.5517C4.34483 29.1724 4.34483 28.4483 4.34483 22.4483C4.34483 16.4483 4.34483 15.7241 4.44828 13.3448C4.55172 11.1724 4.96552 9.93103 5.17241 9.2069C5.58621 8.17241 6.10345 7.44828 6.82759 6.62069C7.65517 5.7931 8.37931 5.37931 9.41379 4.96552C10.2414 4.65517 11.3793 4.24138 13.5517 4.24138C15.931 4.13793 16.6552 4.13793 22.6552 4.13793C28.6552 4.13793 29.3793 4.13793 31.7586 4.24138C33.931 4.34483 35.1724 4.75862 35.8965 4.96552C36.931 5.37931 37.6552 5.89655 38.4828 6.62069C39.3103 7.44828 39.7241 8.17241 40.1379 9.2069C40.4483 10.0345 40.8621 11.1724 40.8621 13.3448C40.9655 15.7241 40.9655 16.4483 40.9655 22.4483C40.9655 28.5517 40.9655 29.1724 40.8621 31.5517ZM22.5517 10.9655C16.1379 10.9655 10.9655 16.1379 10.9655 22.5517C10.9655 28.9655 16.1379 34.1379 22.5517 34.1379C28.9655 34.1379 34.1379 28.9655 34.1379 22.5517C34.0345 16.1379 28.8621 10.9655 22.5517 10.9655ZM22.5517 30C18.4138 30 15.1034 26.6897 15.1034 22.5517C15.1034 18.4138 18.4138 15 22.5517 15C26.6897 15 30 18.3103 30 22.5517C30 26.6897 26.6897 30 22.5517 30ZM34.5517 7.75862C33.1034 7.75862 31.8621 9 31.8621 10.4483C31.8621 11.8966 33.1034 13.1379 34.5517 13.1379C36 13.1379 37.2414 11.8966 37.2414 10.4483C37.2414 9 36 7.75862 34.5517 7.75862Z" fill="white"/>
</svg>
