<svg width="206" height="65" viewBox="0 0 206 65" fill="none" xmlns="http://www.w3.org/2000/svg">
<path d="M4.29003 20.4507H10.8297V45.57H4.29003V20.4507ZM7.58603 16.3111C6.40017 16.3111 5.40613 15.9819 4.60394 15.3233C3.80174 14.6333 3.40063 13.7866 3.40063 12.7831C3.40063 11.7796 3.80174 10.9486 4.60394 10.29C5.40613 9.60006 6.40017 9.25513 7.58603 9.25513C8.77192 9.25513 9.76595 9.58441 10.5681 10.243C11.3703 10.8701 11.7714 11.6698 11.7714 12.642C11.7714 13.6769 11.3703 14.555 10.5681 15.2763C9.80078 15.9662 8.80675 16.3111 7.58603 16.3111ZM30.7807 46.0404C27.9555 46.0404 25.2176 45.6798 22.5668 44.9585C19.9509 44.2373 17.8757 43.2807 16.341 42.0891L18.6953 37.338C20.1951 38.4043 22.0262 39.2823 24.1887 39.9723C26.386 40.6308 28.5833 40.9601 30.7807 40.9601C33.5012 40.9601 35.5241 40.5681 36.8495 39.7841C38.2097 39.0001 38.8899 37.9652 38.8899 36.6795C38.8899 35.7387 38.5062 34.9704 37.7389 34.3745C37.0064 33.7473 36.0647 33.2612 34.9137 32.9163C33.7627 32.5713 32.1932 32.1793 30.2052 31.7403C27.4149 31.1444 25.1478 30.5486 23.4039 29.9527C21.6948 29.3569 20.2125 28.4318 18.9569 27.1774C17.7362 25.8916 17.1258 24.1668 17.1258 22.003C17.1258 20.1841 17.6664 18.5377 18.7476 17.0638C19.8637 15.5585 21.5205 14.3668 23.7178 13.4887C25.95 12.6106 28.6705 12.1716 31.8793 12.1716C34.1116 12.1716 36.3089 12.4225 38.4713 12.9242C40.6337 13.426 42.4998 14.1473 44.0693 15.0881L41.9243 19.8391C40.3198 18.9924 38.6457 18.3495 36.9018 17.9105C35.1579 17.4715 33.4663 17.2519 31.827 17.2519C29.1414 17.2519 27.1358 17.6596 25.8105 18.475C24.52 19.2903 23.8747 20.3722 23.8747 21.7207C23.8747 22.6615 24.241 23.4298 24.9734 24.0257C25.7408 24.6216 26.6999 25.092 27.8509 25.4369C29.0019 25.7818 30.5714 26.1739 32.5594 26.6129C35.28 27.1774 37.5122 27.7732 39.2561 28.4004C41 28.9963 42.4824 29.9214 43.7031 31.1758C44.9587 32.4302 45.5865 34.1236 45.5865 36.2561C45.5865 38.075 45.0284 39.7214 43.9123 41.1953C42.8311 42.6692 41.1744 43.8452 38.9422 44.7233C36.7099 45.6014 33.9894 46.0404 30.7807 46.0404ZM67.5549 20.1684C71.0776 20.1684 73.9028 21.0936 76.0304 22.9438C78.158 24.794 79.2217 27.538 79.2217 31.1758V45.57H72.682V31.9284C72.682 29.7332 72.1065 28.0868 70.9556 26.9892C69.8046 25.8603 68.1653 25.2958 66.0377 25.2958C63.6311 25.2958 61.7303 25.9543 60.3351 27.2715C58.9399 28.5572 58.2424 30.4231 58.2424 32.8692V45.57H51.7027V10.6663H58.2424V23.3671C59.3237 22.3323 60.649 21.5482 62.2185 21.0151C63.823 20.4507 65.6018 20.1684 67.5549 20.1684ZM98.1909 20.1684C102.306 20.1684 105.445 21.0622 107.608 22.8497C109.805 24.6058 110.904 27.2715 110.904 30.8465V45.57H104.731V42.5124C103.928 43.61 102.777 44.4567 101.278 45.0526C99.8127 45.6171 98.0339 45.8993 95.9412 45.8993C93.8485 45.8993 92.0174 45.5857 90.4479 44.9585C88.8784 44.3 87.6571 43.4062 86.7857 42.2772C85.9486 41.1169 85.5301 39.8155 85.5301 38.3729C85.5301 36.115 86.4538 34.3118 88.3029 32.9633C90.1863 31.5835 93.1333 30.8935 97.1445 30.8935H104.364V30.5172C104.364 28.7611 103.771 27.4126 102.586 26.4718C101.435 25.531 99.7081 25.0606 97.4061 25.0606C95.8366 25.0606 94.2842 25.2801 92.7499 25.7191C91.2498 26.1582 89.977 26.7697 88.9307 27.5537L86.3671 23.2731C87.832 22.2696 89.5928 21.5012 91.6512 20.9681C93.7087 20.435 95.8889 20.1684 98.1909 20.1684ZM97.3015 41.6187C98.9405 41.6187 100.388 41.2894 101.644 40.6308C102.934 39.9409 103.841 38.9688 104.364 37.7143V34.7979H97.6154C93.8485 34.7979 91.9651 35.9112 91.9651 38.1377C91.9651 39.204 92.436 40.0507 93.3777 40.6779C94.3194 41.305 95.6273 41.6187 97.3015 41.6187ZM125.523 24.1198C127.406 21.4855 130.719 20.1684 135.463 20.1684V25.7662C134.905 25.6721 134.399 25.6251 133.946 25.6251C131.399 25.6251 129.411 26.2993 127.982 27.6478C126.551 28.9649 125.837 30.8779 125.837 33.3867V45.57H119.297V20.4507H125.523V24.1198ZM167.019 33.1515C167.019 33.5592 166.983 34.1393 166.914 34.8919H144.993C145.376 36.7422 146.37 38.2161 147.975 39.3137C149.614 40.38 151.637 40.9131 154.044 40.9131C157.113 40.9131 159.642 40.0037 161.63 38.1847L165.135 41.8068C163.88 43.1553 162.292 44.1745 160.374 44.8644C158.456 45.5544 156.294 45.8993 153.887 45.8993C150.817 45.8993 148.114 45.3505 145.778 44.2529C143.441 43.1553 141.627 41.6343 140.337 39.69C139.081 37.7143 138.453 35.4878 138.453 33.0103C138.453 30.5643 139.063 28.369 140.284 26.4247C141.54 24.4491 143.266 22.9124 145.464 21.8148C147.661 20.7172 150.137 20.1684 152.893 20.1684C155.613 20.1684 158.037 20.7172 160.165 21.8148C162.327 22.8811 164.001 24.402 165.187 26.3777C166.408 28.322 167.019 30.5799 167.019 33.1515ZM152.893 24.8724C150.8 24.8724 149.021 25.4369 147.556 26.5659C146.126 27.6634 145.255 29.1374 144.941 30.9876H160.793C160.513 29.1687 159.659 27.6948 158.229 26.5659C156.799 25.4369 155.02 24.8724 152.893 24.8724Z" fill="#4FC0AC"/>
<path d="M189.728 33.9512V45.5701H182.926V34.0453L168.539 12.642H175.811L186.536 28.6827L197.366 12.642H204.063L189.728 33.9512Z" fill="#9CA599"/>
<path d="M2.76635 54.5311V58.1693H8.09292V59.0161H2.76635V62.9454H1.67749V53.6844H8.74035V54.5311H2.76635ZM25.6621 63.0247C24.6419 63.0247 23.7149 62.8219 22.8811 62.4162C22.0571 62.0016 21.4097 61.4371 20.9388 60.7227C20.4778 60.0083 20.2472 59.2057 20.2472 58.3149C20.2472 57.424 20.4778 56.6214 20.9388 55.907C21.4097 55.1926 22.0571 54.6325 22.8811 54.2268C23.7149 53.8123 24.6419 53.605 25.6621 53.605C26.6823 53.605 27.5995 53.8078 28.4137 54.2136C29.2377 54.6193 29.8851 55.1838 30.356 55.907C30.8268 56.6214 31.0623 57.424 31.0623 58.3149C31.0623 59.2057 30.8268 60.0127 30.356 60.736C29.8851 61.4504 29.2377 62.0104 28.4137 62.4162C27.5995 62.8219 26.6823 63.0247 25.6621 63.0247ZM25.6621 62.1516C26.4763 62.1516 27.212 61.9884 27.8692 61.6621C28.5265 61.3269 29.0415 60.8683 29.4142 60.2861C29.787 59.6952 29.9734 59.0381 29.9734 58.3149C29.9734 57.5916 29.787 56.9389 29.4142 56.3568C29.0415 55.7659 28.5265 55.3072 27.8692 54.9809C27.212 54.6457 26.4763 54.4782 25.6621 54.4782C24.8479 54.4782 24.1073 54.6457 23.4402 54.9809C22.783 55.3072 22.2631 55.7659 21.8805 56.3568C21.5078 56.9389 21.3214 57.5916 21.3214 58.3149C21.3214 59.0381 21.5078 59.6952 21.8805 60.2861C22.2631 60.8683 22.783 61.3269 23.4402 61.6621C24.1073 61.9884 24.8479 62.1516 25.6621 62.1516ZM47.9523 63.0247C46.6182 63.0247 45.5784 62.6808 44.8329 61.9928C44.0873 61.3048 43.7146 60.3038 43.7146 58.9896V53.6844H44.8034V58.9499C44.8034 60.0259 45.0732 60.8286 45.6127 61.3578C46.1522 61.887 46.9321 62.1516 47.9523 62.1516C48.9823 62.1516 49.767 61.887 50.3066 61.3578C50.8461 60.8286 51.1159 60.0259 51.1159 58.9499V53.6844H52.1753V58.9896C52.1753 60.3038 51.8025 61.3048 51.057 61.9928C50.3213 62.6808 49.2864 63.0247 47.9523 63.0247ZM74.3643 53.6844V62.9454H73.4668L66.8453 55.4307V62.9454H65.7565V53.6844H66.6541L73.2902 61.199V53.6844H74.3643ZM88.0258 53.6844H92.2194C93.3083 53.6844 94.2696 53.8828 95.1034 54.2797C95.9372 54.6678 96.5846 55.2146 97.0457 55.9202C97.5067 56.617 97.7373 57.4152 97.7373 58.3149C97.7373 59.2145 97.5067 60.0171 97.0457 60.7227C96.5846 61.4195 95.9372 61.9663 95.1034 62.3632C94.2696 62.7513 93.3083 62.9454 92.2194 62.9454H88.0258V53.6844ZM92.1605 62.0986C93.063 62.0986 93.8527 61.9399 94.5295 61.6224C95.2064 61.296 95.7312 60.8506 96.104 60.2861C96.4767 59.7128 96.6631 59.0557 96.6631 58.3149C96.6631 57.574 96.4767 56.9213 96.104 56.3568C95.7312 55.7835 95.2064 55.3381 94.5295 55.0206C93.8527 54.6943 93.063 54.5311 92.1605 54.5311H89.1147V62.0986H92.1605ZM116.799 60.4714H111.06L109.824 62.9454H108.691L113.4 53.6844H114.474L119.183 62.9454H118.035L116.799 60.4714ZM116.402 59.6776L113.93 54.7031L111.458 59.6776H116.402ZM132.67 54.5311H129.05V53.6844H137.378V54.5311H133.759V62.9454H132.67V54.5311ZM149.418 53.6844H150.507V62.9454H149.418V53.6844ZM168.661 63.0247C167.641 63.0247 166.714 62.8219 165.88 62.4162C165.056 62.0016 164.409 61.4371 163.938 60.7227C163.477 60.0083 163.246 59.2057 163.246 58.3149C163.246 57.424 163.477 56.6214 163.938 55.907C164.409 55.1926 165.056 54.6325 165.88 54.2268C166.714 53.8123 167.641 53.605 168.661 53.605C169.681 53.605 170.598 53.8078 171.413 54.2136C172.236 54.6193 172.884 55.1838 173.355 55.907C173.826 56.6214 174.061 57.424 174.061 58.3149C174.061 59.2057 173.826 60.0127 173.355 60.736C172.884 61.4504 172.236 62.0104 171.413 62.4162C170.598 62.8219 169.681 63.0247 168.661 63.0247ZM168.661 62.1516C169.475 62.1516 170.211 61.9884 170.868 61.6621C171.525 61.3269 172.04 60.8683 172.413 60.2861C172.786 59.6952 172.972 59.0381 172.972 58.3149C172.972 57.5916 172.786 56.9389 172.413 56.3568C172.04 55.7659 171.525 55.3072 170.868 54.9809C170.211 54.6457 169.475 54.4782 168.661 54.4782C167.847 54.4782 167.106 54.6457 166.439 54.9809C165.782 55.3072 165.262 55.7659 164.879 56.3568C164.507 56.9389 164.32 57.5916 164.32 58.3149C164.32 59.0381 164.507 59.6952 164.879 60.2861C165.262 60.8683 165.782 61.3269 166.439 61.6621C167.106 61.9884 167.847 62.1516 168.661 62.1516ZM195.41 53.6844V62.9454H194.512L187.891 55.4307V62.9454H186.802V53.6844H187.7L194.336 61.199V53.6844H195.41Z" fill="#9CA599"/>
</svg>
