<svg width="100" height="18" viewBox="0 0 100 18" fill="none" xmlns="http://www.w3.org/2000/svg">
<rect width="100" height="18" rx="9" fill="#C4C4C4"/>
<path d="M15.25 7.25H16.125V12.5H15.25V7.25Z" fill="black"/>
<path d="M17.875 7.25H18.75V12.5H17.875V7.25Z" fill="black"/>
<path d="M11.75 4.625V5.5H12.625V14.25C12.625 14.4821 12.7172 14.7046 12.8813 14.8687C13.0454 15.0328 13.2679 15.125 13.5 15.125H20.5C20.7321 15.125 20.9546 15.0328 21.1187 14.8687C21.2828 14.7046 21.375 14.4821 21.375 14.25V5.5H22.25V4.625H11.75ZM13.5 14.25V5.5H20.5V14.25H13.5Z" fill="black"/>
<path d="M15.25 2.875H18.75V3.75H15.25V2.875Z" fill="black"/>
<path d="M45.0835 6.4V12H44.5155V7.52L42.3155 11.288H42.0355L39.8355 7.544V12H39.2675V6.4H39.7555L42.1875 10.552L44.5955 6.4H45.0835ZM48.2601 7.76C48.8094 7.76 49.2308 7.89867 49.5241 8.176C49.8174 8.448 49.9641 8.85333 49.9641 9.392V12H49.4201V11.344C49.2921 11.5627 49.1028 11.7333 48.8521 11.856C48.6068 11.9787 48.3134 12.04 47.9721 12.04C47.5028 12.04 47.1294 11.928 46.8521 11.704C46.5748 11.48 46.4361 11.184 46.4361 10.816C46.4361 10.4587 46.5641 10.1707 46.8201 9.952C47.0814 9.73333 47.4948 9.624 48.0601 9.624H49.3961V9.368C49.3961 9.00533 49.2948 8.73067 49.0921 8.544C48.8894 8.352 48.5934 8.256 48.2041 8.256C47.9374 8.256 47.6814 8.30133 47.4361 8.392C47.1908 8.47733 46.9801 8.59733 46.8041 8.752L46.5481 8.328C46.7614 8.14667 47.0174 8.008 47.3161 7.912C47.6148 7.81067 47.9294 7.76 48.2601 7.76ZM48.0601 11.592C48.3801 11.592 48.6548 11.52 48.8841 11.376C49.1134 11.2267 49.2841 11.0133 49.3961 10.736V10.048H48.0761C47.3561 10.048 46.9961 10.2987 46.9961 10.8C46.9961 11.0453 47.0894 11.24 47.2761 11.384C47.4628 11.5227 47.7241 11.592 48.0601 11.592ZM52.0508 8.616C52.1842 8.33333 52.3815 8.12 52.6428 7.976C52.9095 7.832 53.2375 7.76 53.6268 7.76V8.312L53.4908 8.304C53.0482 8.304 52.7015 8.44 52.4508 8.712C52.2002 8.984 52.0748 9.36533 52.0748 9.856V12H51.5068V7.792H52.0508V8.616ZM56.2153 9.888L55.2233 10.8V12H54.6553V6.064H55.2233V10.088L57.7353 7.792H58.4393L56.6393 9.512L58.6073 12H57.9113L56.2153 9.888ZM61.6737 6.4H63.9537C64.5457 6.4 65.0684 6.52 65.5217 6.76C65.9751 6.99467 66.3271 7.32533 66.5777 7.752C66.8284 8.17333 66.9537 8.656 66.9537 9.2C66.9537 9.744 66.8284 10.2293 66.5777 10.656C66.3271 11.0773 65.9751 11.408 65.5217 11.648C65.0684 11.8827 64.5457 12 63.9537 12H61.6737V6.4ZM63.9217 11.488C64.4124 11.488 64.8417 11.392 65.2097 11.2C65.5777 11.0027 65.8631 10.7333 66.0657 10.392C66.2684 10.0453 66.3697 9.648 66.3697 9.2C66.3697 8.752 66.2684 8.35733 66.0657 8.016C65.8631 7.66933 65.5777 7.4 65.2097 7.208C64.8417 7.01067 64.4124 6.912 63.9217 6.912H62.2657V11.488H63.9217ZM69.8831 12.04C69.4778 12.04 69.1124 11.9493 68.7871 11.768C68.4618 11.5813 68.2058 11.3253 68.0191 11C67.8324 10.6747 67.7391 10.3067 67.7391 9.896C67.7391 9.48533 67.8324 9.11733 68.0191 8.792C68.2058 8.46667 68.4618 8.21333 68.7871 8.032C69.1124 7.85067 69.4778 7.76 69.8831 7.76C70.2884 7.76 70.6538 7.85067 70.9791 8.032C71.3044 8.21333 71.5578 8.46667 71.7391 8.792C71.9258 9.11733 72.0191 9.48533 72.0191 9.896C72.0191 10.3067 71.9258 10.6747 71.7391 11C71.5578 11.3253 71.3044 11.5813 70.9791 11.768C70.6538 11.9493 70.2884 12.04 69.8831 12.04ZM69.8831 11.536C70.1818 11.536 70.4484 11.4693 70.6831 11.336C70.9231 11.1973 71.1098 11.0027 71.2431 10.752C71.3764 10.5013 71.4431 10.216 71.4431 9.896C71.4431 9.576 71.3764 9.29067 71.2431 9.04C71.1098 8.78933 70.9231 8.59733 70.6831 8.464C70.4484 8.32533 70.1818 8.256 69.8831 8.256C69.5844 8.256 69.3151 8.32533 69.0751 8.464C68.8404 8.59733 68.6538 8.78933 68.5151 9.04C68.3818 9.29067 68.3151 9.576 68.3151 9.896C68.3151 10.216 68.3818 10.5013 68.5151 10.752C68.6538 11.0027 68.8404 11.1973 69.0751 11.336C69.3151 11.4693 69.5844 11.536 69.8831 11.536ZM75.3227 7.76C75.8507 7.76 76.2694 7.91467 76.5787 8.224C76.8934 8.528 77.0507 8.97333 77.0507 9.56V12H76.4827V9.616C76.4827 9.17867 76.3734 8.84533 76.1547 8.616C75.9361 8.38667 75.6241 8.272 75.2187 8.272C74.7654 8.272 74.4054 8.408 74.1387 8.68C73.8774 8.94667 73.7467 9.31733 73.7467 9.792V12H73.1787V7.792H73.7227V8.568C73.8774 8.312 74.0907 8.11467 74.3627 7.976C74.6401 7.832 74.9601 7.76 75.3227 7.76ZM82.2724 10.072H78.7524C78.7844 10.5093 78.9524 10.864 79.2564 11.136C79.5604 11.4027 79.9444 11.536 80.4084 11.536C80.6697 11.536 80.9097 11.4907 81.1284 11.4C81.3471 11.304 81.5364 11.1653 81.6964 10.984L82.0164 11.352C81.8297 11.576 81.5951 11.7467 81.3124 11.864C81.0351 11.9813 80.7284 12.04 80.3924 12.04C79.9604 12.04 79.5764 11.9493 79.2404 11.768C78.9097 11.5813 78.6511 11.3253 78.4644 11C78.2777 10.6747 78.1844 10.3067 78.1844 9.896C78.1844 9.48533 78.2724 9.11733 78.4484 8.792C78.6297 8.46667 78.8751 8.21333 79.1844 8.032C79.4991 7.85067 79.8511 7.76 80.2404 7.76C80.6297 7.76 80.9791 7.85067 81.2884 8.032C81.5977 8.21333 81.8404 8.46667 82.0164 8.792C82.1924 9.112 82.2804 9.48 82.2804 9.896L82.2724 10.072ZM80.2404 8.248C79.8351 8.248 79.4937 8.37867 79.2164 8.64C78.9444 8.896 78.7897 9.232 78.7524 9.648H81.7364C81.6991 9.232 81.5417 8.896 81.2644 8.64C80.9924 8.37867 80.6511 8.248 80.2404 8.248Z" fill="black"/>
</svg>
