<svg width="45" height="45" viewBox="0 0 45 45" fill="none" xmlns="http://www.w3.org/2000/svg">
<path d="M31.1684 0C26.0526 0 21.9789 5.14286 21.9789 11.3377C21.9789 12.2727 22.0737 13.0909 22.2632 13.9091C14.4947 13.4416 7.67368 9 3.12632 2.1039C2.36842 3.74026 1.89474 5.72727 1.89474 7.83117C1.89474 11.6883 3.50526 15.1948 5.96842 17.2987C4.45263 17.1818 3.03158 16.7143 1.8 15.8961V16.013C1.8 21.5065 5.02105 26.0649 9.18947 27.1169C8.43158 27.3506 7.57895 27.4675 6.72632 27.4675C6.15789 27.4675 5.58947 27.3506 5.02105 27.2338C6.1579 31.7922 9.56842 35.0649 13.6421 35.1818C10.5158 38.2208 6.53684 40.0909 2.17895 40.0909C1.42105 40.0909 0.663158 40.0909 0 39.974C4.07368 43.2468 8.90526 45.1169 14.1158 45.1169C31.0737 45.1169 40.3579 27.8182 40.3579 12.7403C40.3579 12.2727 40.3579 11.8052 40.3579 11.2208C42.1579 9.58442 43.7684 7.5974 45 5.37662C43.3895 6.31169 41.5895 6.8961 39.6947 7.12987C41.5895 5.72727 43.1053 3.50649 43.7684 0.818182C41.9684 2.1039 39.9789 3.03896 37.8947 3.62338C36.1895 1.4026 33.8211 0 31.1684 0Z" fill="white"/>
</svg>
