<svg width="45" height="35" viewBox="0 0 45 35" fill="none" xmlns="http://www.w3.org/2000/svg">
<path d="M44.4556 7.6C44.4556 7.6 44.002 4.2 42.6411 2.7C40.9173 0.7 39.0121 0.7 38.1048 0.6C31.9355 0 22.5 0 22.5 0C22.5 0 13.0645 0 6.80444 0.5C5.89718 0.6 3.99194 0.6 2.26815 2.6C0.907258 4.1 0.453629 7.5 0.453629 7.5C0.453629 7.5 0 11.6 0 15.6V19.4C0 23.4 0.453629 27.5 0.453629 27.5C0.453629 27.5 0.907258 30.9 2.26815 32.4C3.99194 34.4 6.26008 34.3 7.25806 34.5C10.8871 34.9 22.5 35 22.5 35C22.5 35 31.9355 35 38.1956 34.5C39.1028 34.4 41.0081 34.4 42.7319 32.4C44.0927 30.9 44.5464 27.5 44.5464 27.5C44.5464 27.5 45 23.5 45 19.4V15.6C44.9093 11.6 44.4556 7.6 44.4556 7.6ZM17.7823 24V10L29.9395 17L17.7823 24Z" fill="white"/>
</svg>
